<svg width="88" height="76" viewBox="0 0 88 76" fill="none" xmlns="http://www.w3.org/2000/svg">
<path d="M55.9002 50.2606C60.1355 50.2606 63.5728 53.5443 63.5728 57.5903L63.5684 61.6195C64.0814 70.792 56.9437 75.4286 44.1371 75.4286C31.3787 75.4286 24.1138 70.8632 24.1138 61.7786V57.5903C24.1138 53.5443 27.5511 50.2606 31.7864 50.2606H55.9002ZM55.9002 56.5432H31.7864C31.4957 56.5432 31.2169 56.6535 31.0113 56.8498C30.8058 57.0462 30.6903 57.3125 30.6903 57.5903V61.7786C30.6903 66.7042 34.5792 69.146 44.1371 69.146C53.6423 69.146 57.2681 66.7838 56.9963 61.787V57.5903C56.9963 57.3125 56.8808 57.0462 56.6753 56.8498C56.4697 56.6535 56.1909 56.5432 55.9002 56.5432ZM7.67258 29.3187H26.8584C26.306 31.369 26.1647 33.5007 26.4419 35.6012H7.67258C7.38188 35.6012 7.10309 35.7116 6.89753 35.9079C6.69198 36.1043 6.5765 36.3706 6.5765 36.6483V40.8367C6.5765 45.7623 10.4654 48.2041 20.0232 48.2041C22.0488 48.2041 23.8069 48.0952 25.3151 47.8816C22.8065 49.3998 20.9747 51.7511 20.1723 54.4825L20.0232 54.4867C7.26484 54.4867 0 49.9213 0 40.8367V36.6483C0 32.6024 3.43732 29.3187 7.67258 29.3187ZM80.014 29.3187C84.2493 29.3187 87.6866 32.6024 87.6866 36.6483L87.6822 40.6776C88.1952 49.8501 81.0575 54.4867 68.2509 54.4867L67.5099 54.4783C66.6832 51.6722 64.7754 49.269 62.1698 47.7517C63.8665 48.0533 65.8833 48.2041 68.2509 48.2041C77.7561 48.2041 81.3819 45.8418 81.1101 40.8451V36.6483C81.1101 36.3706 80.9946 36.1043 80.7891 35.9079C80.5835 35.7116 80.3047 35.6012 80.014 35.6012H61.2491C61.5204 33.5003 61.3776 31.3694 60.8282 29.3187H80.014ZM43.8433 20.9419C45.5706 20.9419 47.2809 21.2669 48.8767 21.8984C50.4725 22.5298 51.9225 23.4554 53.1439 24.6222C54.3652 25.7889 55.3341 27.1741 55.9951 28.6986C56.6561 30.2231 56.9963 31.857 56.9963 33.5071C56.9963 35.1571 56.6561 36.7911 55.9951 38.3155C55.3341 39.84 54.3652 41.2252 53.1439 42.392C51.9225 43.5587 50.4725 44.4843 48.8767 45.1157C47.2809 45.7472 45.5706 46.0722 43.8433 46.0722C40.3549 46.0722 37.0094 44.7484 34.5427 42.392C32.0761 40.0355 30.6903 36.8395 30.6903 33.5071C30.6903 30.1746 32.0761 26.9786 34.5427 24.6222C37.0094 22.2657 40.3549 20.9419 43.8433 20.9419ZM43.8433 27.2245C42.9797 27.2245 42.1245 27.387 41.3266 27.7027C40.5287 28.0184 39.8037 28.4812 39.193 29.0646C38.5823 29.648 38.0979 30.3406 37.7674 31.1028C37.4369 31.8651 37.2668 32.682 37.2668 33.5071C37.2668 34.3321 37.4369 35.1491 37.7674 35.9113C38.0979 36.6735 38.5823 37.3661 39.193 37.9495C39.8037 38.5329 40.5287 38.9957 41.3266 39.3114C42.1245 39.6271 42.9797 39.7896 43.8433 39.7896C45.5875 39.7896 47.2603 39.1277 48.4936 37.9495C49.7269 36.7713 50.4198 35.1733 50.4198 33.5071C50.4198 31.8408 49.7269 30.2428 48.4936 29.0646C47.2603 27.8864 45.5875 27.2245 43.8433 27.2245ZM19.7295 0C23.2179 0 26.5634 1.32382 29.0301 3.68025C31.4967 6.03667 32.8825 9.23266 32.8825 12.5651C32.8825 15.8976 31.4967 19.0936 29.0301 21.45C26.5634 23.8065 23.2179 25.1303 19.7295 25.1303C16.2411 25.1303 12.8956 23.8065 10.4289 21.45C7.96225 19.0936 6.5765 15.8976 6.5765 12.5651C6.5765 9.23266 7.96225 6.03667 10.4289 3.68025C12.8956 1.32382 16.2411 0 19.7295 0ZM67.9571 0C71.4455 0 74.791 1.32382 77.2577 3.68025C79.7244 6.03667 81.1101 9.23266 81.1101 12.5651C81.1101 15.8976 79.7244 19.0936 77.2577 21.45C74.791 23.8065 71.4455 25.1303 67.9571 25.1303C64.4687 25.1303 61.1232 23.8065 58.6566 21.45C56.1899 19.0936 54.8041 15.8976 54.8041 12.5651C54.8041 9.23266 56.1899 6.03667 58.6566 3.68025C61.1232 1.32382 64.4687 0 67.9571 0ZM19.7295 6.28257C17.9853 6.28257 16.3125 6.94448 15.0792 8.1227C13.8459 9.30091 13.153 10.8989 13.153 12.5651C13.153 14.2314 13.8459 15.8294 15.0792 17.0076C16.3125 18.1858 17.9853 18.8477 19.7295 18.8477C21.4737 18.8477 23.1464 18.1858 24.3798 17.0076C25.6131 15.8294 26.306 14.2314 26.306 12.5651C26.306 10.8989 25.6131 9.30091 24.3798 8.1227C23.1464 6.94448 21.4737 6.28257 19.7295 6.28257ZM67.9571 6.28257C66.2129 6.28257 64.5402 6.94448 63.3068 8.1227C62.0735 9.30091 61.3806 10.8989 61.3806 12.5651C61.3806 14.2314 62.0735 15.8294 63.3068 17.0076C64.5402 18.1858 66.2129 18.8477 67.9571 18.8477C69.7013 18.8477 71.3741 18.1858 72.6074 17.0076C73.8407 15.8294 74.5336 14.2314 74.5336 12.5651C74.5336 10.8989 73.8407 9.30091 72.6074 8.1227C71.3741 6.94448 69.7013 6.28257 67.9571 6.28257Z" fill="#152D47"/>
</svg>
