<svg width="71" height="78" viewBox="0 0 71 78" fill="none" xmlns="http://www.w3.org/2000/svg">
<path d="M65.5385 22.2857H43.6923V5.57143L35.5 0L27.3077 5.57143V22.2857H5.46154L0 27.8571V33.4286H71V27.8571L65.5385 22.2857ZM35.5 8.35714C37.6846 8.35714 39.3231 10.0286 39.3231 12.8143C39.3231 15.6 37.6846 16.7143 35.5 16.7143C33.3154 16.7143 31.1308 15.0429 31.1308 12.2571C31.1308 10.0286 33.3154 8.35714 35.5 8.35714ZM65.5385 39H5.46154V61.2857L0 69.6429V78H71V69.6429L65.5385 61.2857V39ZM21.8462 69.6429H16.3846V44.5714H21.8462V69.6429ZM38.2308 69.6429H32.7692V44.5714H38.2308V69.6429ZM54.6154 69.6429H49.1538V44.5714H54.6154V69.6429Z" fill="#152D47"/>
</svg>
