<svg width="79" height="79" viewBox="0 0 79 79" fill="none" xmlns="http://www.w3.org/2000/svg">
<path d="M39.5001 41.6545C38.9286 41.6545 38.3806 41.9572 37.9766 42.4959C37.5725 43.0347 37.3455 43.7654 37.3455 44.5273C37.3455 45.2892 37.5725 46.0199 37.9766 46.5586C38.3806 47.0973 38.9286 47.4 39.5001 47.4C40.0715 47.4 40.6195 47.0973 41.0236 46.5586C41.4276 46.0199 41.6546 45.2892 41.6546 44.5273C41.6546 43.7654 41.4276 43.0347 41.0236 42.4959C40.6195 41.9572 40.0715 41.6545 39.5001 41.6545Z" fill="#152D47"/>
<path fill-rule="evenodd" clip-rule="evenodd" d="M63.2 32.6059L42.1333 22.0726V15.8H57.9333V0H36.8667V22.0726L15.8 32.6059V42.1333H5.26667V73.7333H0V79H31.6V57.9333H47.4V79H79V73.7333H73.7333V42.1333H63.2V32.6059ZM68.4667 73.7333V47.4H63.2V73.7333H68.4667ZM15.8 73.7333H10.5333V47.4H15.8V73.7333ZM31.6 44.7667C31.6 42.6715 32.4323 40.6621 33.9139 39.1805C35.3954 37.699 37.4048 36.8667 39.5 36.8667C41.5952 36.8667 43.6046 37.699 45.0861 39.1805C46.5677 40.6621 47.4 42.6715 47.4 44.7667C47.4 46.8619 46.5677 48.8713 45.0861 50.3528C43.6046 51.8344 41.5952 52.6667 39.5 52.6667C37.4048 52.6667 35.3954 51.8344 33.9139 50.3528C32.4323 48.8713 31.6 46.8619 31.6 44.7667Z" fill="#152D47"/>
<path d="M41.6546 79V63.2H37.3455V79H41.6546Z" fill="#152D47"/>
</svg>
