<svg width="89" height="95" viewBox="0 0 89 95" fill="none" xmlns="http://www.w3.org/2000/svg">
<path d="M89 43.8426C89.006 50.8749 87.2932 57.8052 84.0064 64.0473C80.7196 70.2894 75.9555 75.6597 70.1172 79.7039L77.875 95H11.125L18.8828 79.7039C12.6343 75.3692 7.62392 69.5219 4.3343 62.7254C1.04469 55.9288 -0.413281 48.412 0.100834 40.8991C0.614949 33.3862 3.08382 26.1303 7.26964 19.8305C11.4554 13.5306 17.2171 8.39908 23.9997 4.93016C30.7822 1.46125 38.357 -0.228143 45.9945 0.0247387C53.6319 0.27762 61.0745 2.46425 67.6054 6.37399C74.1364 10.2837 79.5355 15.7848 83.2827 22.3473C87.0298 28.9099 88.9988 36.3127 89 43.8426ZM80.0852 44.7562H55.5879C55.3877 47.0948 54.4457 49.2288 52.9921 50.9243L70.3174 67.9962C76.3872 61.7123 79.8688 53.4288 80.0852 44.7562ZM69.0121 69.2825L51.6867 52.2105C50.6585 53.0709 49.4798 53.7395 48.2083 54.1837V78.7393C56.0134 77.9405 63.3295 74.6148 69.0121 69.2825ZM33.4121 44.7562H8.91484C9.13125 53.4288 12.6128 61.7123 18.6826 67.9962L36.0079 50.9243C34.5102 49.1858 33.6024 47.0289 33.4121 44.7562ZM19.9879 69.2825C25.6715 74.6122 32.9875 77.9353 40.7917 78.732V54.1764C39.5208 53.7344 38.3421 53.0683 37.3132 52.2105L19.9879 69.2825ZM80.0852 42.9291C79.8688 34.2565 76.3872 25.973 70.3174 19.6891L52.9921 36.761C54.4457 38.4565 55.3877 40.5905 55.5879 42.9291H80.0852ZM69.0121 18.4028C62.6349 12.4218 54.2285 8.99117 45.4271 8.77793V32.9169C47.8004 33.1142 49.9661 34.0424 51.6867 35.4748L69.0121 18.4028ZM43.5729 32.9169V8.77793C34.7715 8.99117 26.3651 12.4218 19.9879 18.4028L37.3132 35.4748C39.0339 34.0424 41.1996 33.1142 43.5729 32.9169ZM36.0079 36.761L18.6826 19.6891C12.6128 25.973 9.13125 34.2565 8.91484 42.9291H33.4121C33.6123 40.5905 34.5542 38.4565 36.0079 36.761Z" fill="#152D47"/>
</svg>
