<svg width="64" height="83" viewBox="0 0 64 83" fill="none" xmlns="http://www.w3.org/2000/svg">
<path d="M16.9424 14.3175L9.72768 10.5825L14.8347 0H49.1653L54.3129 10.5825L47.0982 14.276L44.1799 8.3H19.8607L16.9424 14.3175ZM58.8524 24.9H40.4915L37.2894 12.45H26.7511L23.5491 24.9H5.18809L0 35.4825L7.25522 39.176L10.2141 33.2H53.8265L56.7448 39.2175L64 35.524L58.8524 24.9ZM55.4072 83H47.0171L46.0443 79.265L32.0203 57.685L17.9557 79.265L17.0234 83H8.63331L20.3471 37.35H28.7372L27.278 42.9525L32.0203 50.215L36.722 42.9525L35.3034 37.35H43.6935L55.4072 83ZM29.5883 53.95L25.9405 48.3475L21.1577 66.9395L29.5883 53.95ZM42.8828 66.898L38.1001 48.306L34.4522 53.95L42.8828 66.898Z" fill="#152D47"/>
</svg>
