<svg width="73" height="81" viewBox="0 0 73 81" fill="none" xmlns="http://www.w3.org/2000/svg">
<path fill-rule="evenodd" clip-rule="evenodd" d="M8.11111 0C5.95991 0 3.89682 0.85339 2.37569 2.37243C0.854561 3.89148 0 5.95175 0 8.1V76.545C0 77.13 0.11539 77.7093 0.339582 78.2499C0.563774 78.7904 0.892377 79.2815 1.30663 79.6952C1.72088 80.1089 2.21267 80.437 2.75392 80.6609C3.29516 80.8848 3.87527 81 4.46111 81H68.5389C69.1247 81 69.7048 80.8848 70.2461 80.6609C70.7873 80.437 71.2791 80.1089 71.6934 79.6952C72.1076 79.2815 72.4362 78.7904 72.6604 78.2499C72.8846 77.7093 73 77.13 73 76.545V36.45C73 34.3017 72.1454 32.2415 70.6243 30.7224C69.1032 29.2034 67.0401 28.35 64.8889 28.35H62.8611C62.3233 28.35 61.8075 28.5633 61.4272 28.9431C61.047 29.3229 60.8333 29.8379 60.8333 30.375V72.9H56.7778V8.1C56.7778 5.95175 55.9232 3.89148 54.4021 2.37243C52.881 0.85339 50.8179 0 48.6667 0H8.11111ZM28.3889 12.15C27.3133 12.15 26.2817 12.5767 25.5212 13.3362C24.7606 14.0957 24.3333 15.1259 24.3333 16.2V20.25H20.2778C19.2022 20.25 18.1706 20.6767 17.4101 21.4362C16.6495 22.1957 16.2222 23.2259 16.2222 24.3C16.2222 25.3741 16.6495 26.4043 17.4101 27.1638C18.1706 27.9233 19.2022 28.35 20.2778 28.35H24.3333V32.4C24.3333 33.4741 24.7606 34.5043 25.5212 35.2638C26.2817 36.0233 27.3133 36.45 28.3889 36.45C29.4645 36.45 30.496 36.0233 31.2566 35.2638C32.0172 34.5043 32.4444 33.4741 32.4444 32.4V28.35H36.5C37.5756 28.35 38.6071 27.9233 39.3677 27.1638C40.1283 26.4043 40.5556 25.3741 40.5556 24.3C40.5556 23.2259 40.1283 22.1957 39.3677 21.4362C38.6071 20.6767 37.5756 20.25 36.5 20.25H32.4444V16.2C32.4444 15.1259 32.0172 14.0957 31.2566 13.3362C30.496 12.5767 29.4645 12.15 28.3889 12.15ZM28.3889 48.6C26.2377 48.6 24.1746 49.4534 22.6535 50.9724C21.1323 52.4915 20.2778 54.5518 20.2778 56.7V72.9H36.5V56.7C36.5 54.5518 35.6454 52.4915 34.1243 50.9724C32.6032 49.4534 30.5401 48.6 28.3889 48.6Z" fill="#162D47"/>
</svg>
