<svg width="92" height="84" viewBox="0 0 92 84" fill="none" xmlns="http://www.w3.org/2000/svg">
<path d="M12.5455 54.6H20.9091C23.1273 54.6 25.2546 55.485 26.8231 57.0603C28.3916 58.6356 29.2727 60.7722 29.2727 63V71.4H33.4545V63C33.4545 60.7722 34.3357 58.6356 35.9042 57.0603C37.4727 55.485 39.6 54.6 41.8182 54.6H50.1818C52.4 54.6 54.5273 55.485 56.0958 57.0603C57.6643 58.6356 58.5455 60.7722 58.5455 63V71.4H62.7273V63C62.7273 60.7722 63.6084 58.6356 65.1769 57.0603C66.7454 55.485 68.8727 54.6 71.0909 54.6H79.4545C81.6727 54.6 83.8 55.485 85.3685 57.0603C86.937 58.6356 87.8182 60.7722 87.8182 63V71.4H92V84H0V71.4H4.18182V63C4.18182 60.7722 5.06298 58.6356 6.63147 57.0603C8.19996 55.485 10.3273 54.6 12.5455 54.6ZM41.8182 21L58.5455 33.6L41.8182 46.2V21ZM12.5455 0H79.4545C81.6727 0 83.8 0.884997 85.3685 2.4603C86.937 4.03561 87.8182 6.17218 87.8182 8.4V48.468C85.2857 46.9666 82.3953 46.1828 79.4545 46.2V8.4H12.5455V46.2C9.49273 46.2 6.64909 46.998 4.18182 48.468V8.4C4.18182 6.17218 5.06298 4.03561 6.63147 2.4603C8.19996 0.884997 10.3273 0 12.5455 0Z" fill="#152D47"/>
</svg>
