<svg width="92" height="92" viewBox="0 0 92 92" fill="none" xmlns="http://www.w3.org/2000/svg">
<path d="M86.9129 49.6846L91.9239 22.2143C92.0499 21.5059 92.0191 20.7784 91.8338 20.0831C91.6484 19.3878 91.3129 18.7415 90.851 18.1897C90.389 17.6379 89.8118 17.1939 89.1598 16.889C88.5078 16.584 87.797 16.4255 87.0772 16.4247H22.18L20.4139 6.73411C20.0763 4.84539 19.0847 3.13565 17.6128 1.90442C16.1409 0.673196 14.2825 -0.000982944 12.3633 1.07567e-06H4.9289C3.62167 1.07567e-06 2.36799 0.519136 1.44364 1.4432C0.519293 2.36727 0 3.62057 0 4.9274C0 6.23422 0.519293 7.48753 1.44364 8.41159C2.36799 9.33566 3.62167 9.85479 4.9289 9.85479H10.9668L21.8514 69.6405C20.3371 71.1778 19.2247 73.0641 18.6125 75.133C18.0003 77.2019 17.9072 79.3896 18.3412 81.5031C18.7753 83.6165 19.7233 85.5905 21.1014 87.2509C22.4796 88.9112 24.2455 90.2068 26.2432 91.0231C28.2409 91.8395 30.409 92.1515 32.5559 91.9316C34.7028 91.7117 36.7626 90.9667 38.5532 89.7624C40.3439 88.558 41.8103 86.9315 42.8231 85.0262C43.8358 83.121 44.3637 80.9958 44.3601 78.8383C44.3502 77.7312 44.2124 76.6289 43.9493 75.5534H61.2005C60.9374 76.6289 60.7996 77.7312 60.7897 78.8383C60.7897 81.4371 61.5606 83.9775 63.0049 86.1384C64.4491 88.2992 66.5019 89.9833 68.9036 90.9778C71.3053 91.9724 73.948 92.2326 76.4977 91.7256C79.0473 91.2186 81.3893 89.9671 83.2275 88.1295C85.0657 86.2919 86.3175 83.9506 86.8246 81.4018C87.3318 78.8529 87.0715 76.2109 86.0767 73.81C85.0819 71.409 83.3972 69.3569 81.2357 67.913C79.0742 66.4692 76.533 65.6986 73.9335 65.6986H31.1342L29.9431 59.1287H75.6175C78.308 59.1239 80.9116 58.1763 82.9754 56.4508C85.0391 54.7252 86.4325 52.331 86.9129 49.6846ZM34.5023 78.8383C34.5023 79.488 34.3096 80.1231 33.9485 80.6633C33.5874 81.2035 33.0742 81.6246 32.4738 81.8732C31.8734 82.1218 31.2127 82.1869 30.5753 82.0601C29.9379 81.9334 29.3524 81.6205 28.8928 81.1611C28.4333 80.7017 28.1203 80.1164 27.9936 79.4792C27.8668 78.842 27.9318 78.1815 28.1805 77.5812C28.4292 76.981 28.8504 76.468 29.3908 76.107C29.9312 75.7461 30.5665 75.5534 31.2164 75.5534C32.0878 75.5534 32.9236 75.8995 33.5399 76.5155C34.1561 77.1316 34.5023 77.9671 34.5023 78.8383ZM73.9335 82.1233C73.2836 82.1233 72.6483 81.9306 72.1079 81.5696C71.5675 81.2087 71.1464 80.6957 70.8977 80.0954C70.649 79.4952 70.5839 78.8347 70.7107 78.1975C70.8375 77.5603 71.1504 76.9749 71.61 76.5155C72.0695 76.0561 72.655 75.7433 73.2924 75.6165C73.9298 75.4898 74.5905 75.5548 75.1909 75.8034C75.7914 76.0521 76.3046 76.4731 76.6656 77.0133C77.0267 77.5535 77.2194 78.1886 77.2194 78.8383C77.2194 79.7095 76.8732 80.5451 76.257 81.1611C75.6407 81.7772 74.8049 82.1233 73.9335 82.1233ZM23.9873 26.2794H81.1625L77.2194 47.9189C77.1524 48.2961 76.9555 48.638 76.663 48.8854C76.3705 49.1328 76.0007 49.2703 75.6175 49.274H28.1769L23.9873 26.2794Z" fill="#152D47"/>
</svg>
